<svg width="100%" height="100%" viewBox="0 0 100 100" version="1.1" xmlns="http://www.w3.org/2000/svg" xmlns:xlink="http://www.w3.org/1999/xlink" xml:space="preserve" xmlns:serif="http://www.serif.com/" style="fill-rule:evenodd;clip-rule:evenodd;stroke-linejoin:round;stroke-miterlimit:2;">
    <g transform="matrix(0.808132,0,0,0.808132,4.33486,11.1976)">
        <path d="M83.147,81.851C82.765,81.851 82.382,81.843 82,81.827C76.593,90.036 67.428,95.03 57.488,95.03L57.488,87.544C65.518,87.544 72.86,83.177 76.704,76.116L77.928,73.867L80.468,74.193C81.357,74.307 82.258,74.365 83.147,74.365C94.658,74.365 104.028,64.994 104.028,53.483C104.028,47.31 101.164,41.264 96.377,37.329L94.9,36.116L95.017,34.209C95.042,33.813 95.054,33.411 95.054,33.012C95.054,21.966 86.061,12.972 75.014,12.972C71.035,12.972 67.202,14.134 63.895,16.341L61.109,18.201L58.953,15.636C55.125,11.083 49.553,8.486 43.607,8.486C32.561,8.486 23.568,17.479 23.568,28.526C23.568,28.834 23.575,29.146 23.59,29.455L23.709,31.997L21.388,33.043C13.844,36.441 8.986,43.95 8.986,52.221C8.986,63.81 18.419,73.243 30.007,73.243C31.239,73.243 32.474,73.136 33.679,72.924L36.49,72.429L37.711,75.008C41.321,82.632 49.068,87.544 57.488,87.544L57.488,95.03C47.095,95.03 37.492,89.478 32.239,80.643C31.497,80.7 30.752,80.729 30.007,80.729C14.285,80.729 1.5,67.944 1.5,52.221C1.5,41.833 7.148,32.334 16.108,27.328C16.737,12.701 28.828,1 43.607,1C50.692,1 57.409,3.697 62.492,8.498C66.356,6.52 70.627,5.486 75.014,5.486C90.119,5.486 102.417,17.709 102.539,32.786C108.2,38.116 111.514,45.694 111.514,53.483C111.514,69.128 98.792,81.851 83.147,81.851ZM71.707,57.596C69.165,58.569 66.662,59.061 64.255,59.061C61.839,59.061 59.456,58.566 57.178,57.592C57.086,57.554 57.086,57.554 56.995,57.514C56.155,57.153 55.796,56.718 55.796,55.764L55.796,54.49C55.796,53.369 56.441,52.648 57.493,52.648L57.729,52.68L57.792,52.704C59.875,53.526 62.048,53.942 64.251,53.942C66.463,53.942 68.778,53.523 71.133,52.694L71.345,52.648L71.403,52.648C72.456,52.648 73.102,53.369 73.102,54.49L73.102,55.764C73.102,56.778 72.754,57.146 71.781,57.565L71.707,57.596ZM40.496,45.378C39.782,45.528 39.249,46.094 39.249,47.121L39.249,49.258C39.249,50.065 39.744,50.619 40.515,50.619C40.696,50.619 40.881,50.589 41.089,50.527L53.396,46.546C54.33,46.235 54.843,45.485 54.843,44.459L54.843,42.684C54.843,41.658 54.33,40.908 53.397,40.597L41.116,36.624C40.898,36.542 40.68,36.496 40.469,36.496C39.818,36.496 39.249,36.905 39.249,37.853L39.249,40.022C39.249,41.01 39.765,41.574 40.48,41.761L47.377,43.572L40.496,45.378Z" style="fill:rgb(20,23,41);fill-rule:nonzero;"/>
    </g>
</svg>