<svg xmlns="http://www.w3.org/2000/svg" x="0px" y="0px" width="100" height="100" viewBox="0 0 48 48">
<polygon fill="#b71c1c" points="23.027,14.984 25.766,13.712 26.339,14.722 28.087,7.733 24.1,2.75 17.786,10.643"></polygon><polygon fill="#b71c1c" points="27.776,17.255 27.804,17.304 32.903,13.754 28.887,8.734"></polygon><polygon fill="#b71c1c" points="21.241,41.426 22.897,31.487 18.527,33.13 20.533,35.674 17.916,37.27"></polygon><polygon fill="#b71c1c" points="27.038,34.598 24.815,31.712 21.93,42.288 24.1,45 31.63,35.587"></polygon><polygon fill="#b71c1c" points="13.832,24.668 10.248,20.066 7.2,23.875 9.587,26.859"></polygon><path fill="#fafafa" d="M43.78,32.63l-9.294-5.914L32.83,24.24l5.342-3.053c1.402-0.676-1.257-6.715-3.686-5.529	l-7.668,4.978l-0.625-0.371c0,0-10.136-8.293-13.822-11.979C8.686,4.601,5,10.13,6.843,12.894c1.843,2.764,10.136,12.9,10.136,12.9	l1.375,0.282l-3.593,2.309l-0.497-1.021c-0.238-0.489-0.854-0.67-1.308-0.37c-0.651,0.43-1.308,0.988-1.505,1.564l-2.524,6.555	l16.29-6.533l2.819,3.664l9.517,2.379c1.006,0.252,2.063,0.211,3.047-0.117l3.075-1.025C44.055,33.355,44.117,32.845,43.78,32.63z"></path><path d="M44.049,32.208l-5.403-3.438l1.787-0.865l-0.436-0.9l-2.343,1.134l-2.828-1.799l-1.448-1.839l4.964-2.837	c0.109-0.003,0.211-0.025,0.3-0.076c0.252-0.145,0.373-0.474,0.376-0.916c0.011-0.064,0.03-0.115,0.035-0.187	c0.058-0.797-0.296-1.967-0.878-3.021c0.002,0,0.016-0.002,0.016-0.002s2.163,4.146,3.906,5.829	c1.743,1.683,2.223,0.541,1.262-0.841c-0.961-1.382-4.627-5.469-4.627-5.469s0.661-2.224,0.601-3.606s-1.142-2.103-1.202-0.721	c-0.06,1.382-0.06,3.786-0.06,3.786s-0.262-0.039-0.646-0.092c-0.29-0.35-0.602-0.662-0.935-0.887	c-0.752-0.508-1.52-0.595-2.276-0.221l-7.435,4.798l-0.269-0.159c-0.035-0.029-1.271-1.042-3.021-2.502l2.255-1.393l-0.525-0.852	l-2.539,1.568c-3.268-2.739-7.774-6.586-9.956-8.767c-1.623-1.623-3.525-1.828-5.091-0.546c-1.549,1.27-2.425,3.957-1.207,5.784	c1.835,2.753,9.825,12.525,10.165,12.939c0.072,0.089,0.174,0.15,0.286,0.174l0.166,0.034l-2.08,1.342l-0.251-0.515	c-0.179-0.367-0.507-0.64-0.901-0.747c-0.385-0.105-0.799-0.041-1.133,0.179c-0.926,0.613-1.498,1.226-1.695,1.801l-0.255,0.662	l-3.124-2.098c-0.151-0.103-0.346-0.113-0.508-0.029l-2.326,1.2c-0.146,0.075-0.245,0.217-0.267,0.38	c-0.021,0.162,0.039,0.325,0.161,0.436l4.529,4.096l-0.735,1.909c-0.071,0.186-0.026,0.396,0.115,0.536	c0.096,0.094,0.223,0.144,0.352,0.144c0.062,0,0.126-0.012,0.187-0.036l2.322-0.932l3.735,1.913	c0.071,0.036,0.149,0.055,0.228,0.055c0.062,0,0.126-0.012,0.186-0.035l1.908-0.762c0.156-0.062,0.271-0.199,0.305-0.364	c0.033-0.165-0.018-0.335-0.137-0.454l-2.034-2.034l9.507-3.816l2.503,3.393c0.069,0.094,0.168,0.16,0.281,0.188l9.517,2.379	c0.476,0.118,0.961,0.178,1.445,0.178c0.636,0,1.271-0.103,1.881-0.306l3.074-1.025c0.36-0.119,0.613-0.428,0.66-0.805	C44.539,32.773,44.369,32.413,44.049,32.208z M34.786,16.083c0,0.002,0,0.005-0.001,0.007c-0.012,0-0.022,0.003-0.034,0.004	C34.763,16.089,34.775,16.087,34.786,16.083z M34.026,16.55c-0.15,0.414,0.115,0.96,0.8,1.032c0.038,0.004,0.086,0.005,0.127,0.008	c0.155,0.518,0.393,1.083,0.722,1.652c0.001,0.002,0.002,0.003,0.003,0.005c-1.343,0.012-3.292,0.356-4.758,2	c-0.183,0.205-0.477,0.457-0.848,0.741l-2.311-1.368L34.026,16.55z M7.259,12.617C6.388,11.311,7.021,9.28,8.174,8.253	c0.957,0.232,4.926,1.44,5.559,5.663c0.419,2.795,5.142,5.222,9.024,6.766l-1.212,3.029l2.958,1.059l-2.838,1.476l-4.413-0.905	C16.256,24.119,8.951,15.156,7.259,12.617z M14.014,31.248l-2.435-1.635l0.343-0.892c0.127-0.369,0.591-0.834,1.308-1.309	c0.074-0.049,0.148-0.062,0.21-0.062c0.044,0,0.081,0.007,0.107,0.014c0.116,0.032,0.214,0.112,0.267,0.221l0.497,1.021	c0.062,0.129,0.177,0.225,0.314,0.263c0.136,0.04,0.284,0.016,0.405-0.061l3.421-2.199l3.02,0.62	C18.841,28.689,16.138,30.132,14.014,31.248z M40.441,34.032c-0.895,0.3-1.85,0.334-2.768,0.106l-9.342-2.335l-2.292-3.108	l2.729-1.56L30.8,29.48l9.856,4.48L40.441,34.032z M43.486,33.017l-0.449-0.313l0.479,0.302L43.486,33.017z"></path>
</svg>