<?xml version="1.0" encoding="UTF-8" standalone="no"?>
<!DOCTYPE svg PUBLIC "-//W3C//DTD SVG 1.1//EN" "http://www.w3.org/Graphics/SVG/1.1/DTD/svg11.dtd">
<svg width="100%" height="100%" viewBox="0 0 132 132" version="1.1" xmlns="http://www.w3.org/2000/svg" xmlns:xlink="http://www.w3.org/1999/xlink" xml:space="preserve" xmlns:serif="http://www.serif.com/" style="fill-rule:evenodd;clip-rule:evenodd;stroke-linejoin:round;stroke-miterlimit:2;">
    <g transform="matrix(4.09704,0,0,4.09704,11.2531,0.442389)">
        <path d="M20.395,30.593C19.277,30.593 18.185,30.209 17.315,29.51C17.165,29.388 17.003,29.365 16.895,29.365C16.724,29.365 16.551,29.426 16.408,29.541C15.545,30.221 14.464,30.596 13.363,30.596C12.261,30.596 11.18,30.221 10.317,29.541C10.179,29.431 10.015,29.374 9.846,29.374C9.677,29.374 9.513,29.433 9.375,29.541C8.51,30.223 7.469,30.586 6.365,30.596L6.332,30.596C5.017,30.596 3.777,30.071 2.841,29.114C1.918,28.169 1.406,26.927 1.406,25.616L1.406,13.367C1.406,6.77 6.77,1.407 13.363,1.407C19.955,1.407 25.319,6.77 25.319,13.363L25.319,25.616C25.319,28.261 23.277,30.443 20.67,30.586C20.578,30.591 20.487,30.593 20.395,30.593ZM23.912,13.363C23.912,7.537 19.188,2.813 13.362,2.813C7.537,2.813 2.813,7.537 2.813,13.363L2.813,25.612C2.813,27.56 4.405,29.201 6.353,29.187C7.164,29.182 7.91,28.901 8.503,28.434C9.297,27.808 10.392,27.808 11.187,28.434C11.785,28.906 12.537,29.187 13.36,29.187C14.183,29.187 14.938,28.906 15.536,28.434C16.321,27.815 17.416,27.787 18.194,28.413C18.844,28.936 19.683,29.231 20.592,29.182C22.465,29.079 23.912,27.492 23.912,25.616L23.912,13.363Z"/>
        <path d="M11.281,12.437L7.349,10.167C6.838,9.872 6.182,10.048 5.887,10.559C5.591,11.07 5.767,11.726 6.278,12.022L8.604,13.365L6.278,14.708C5.767,15.004 5.591,15.658 5.887,16.171C6.182,16.682 6.836,16.858 7.349,16.563L11.281,14.293C11.993,13.881 11.993,12.852 11.281,12.439L11.281,12.437Z" style="fill-rule:nonzero;"/>
        <path d="M20.182,12.291L15.018,12.291C14.427,12.291 13.946,12.77 13.946,13.363C13.946,13.956 14.425,14.434 15.018,14.434L20.182,14.434C20.773,14.434 21.254,13.956 21.254,13.363C21.254,12.77 20.775,12.291 20.182,12.291Z" style="fill-rule:nonzero;"/>
    </g>
</svg>
